<?xml version="1.0" standalone="no"?>
<!DOCTYPE svg PUBLIC "-//W3C//DTD SVG 1.1//EN" "http://www.w3.org/Graphics/SVG/1.1/DTD/svg11.dtd">
<svg width="1437px" height="2230px" version="1.1" xmlns="http://www.w3.org/2000/svg">

<!-- This file is a systemd-analyze SVG file. It is best rendered in a   -->
<!-- browser such as Chrome, Chromium or Firefox. Other applications     -->
<!-- that render these files properly but much slower are ImageMagick,   -->
<!-- gimp, inkscape, etc. To display the files on your system, just      -->
<!-- point your browser to this file.                                    -->

<!-- This plot was generated by systemd-analyze version 234              -->

<defs>
  <style type="text/css">
    <![CDATA[
      rect       { stroke-width: 1; stroke-opacity: 0; }
      rect.background   { fill: rgb(255,255,255); }
      rect.activating   { fill: rgb(255,0,0); fill-opacity: 0.7; }
      rect.active       { fill: rgb(200,150,150); fill-opacity: 0.7; }
      rect.deactivating { fill: rgb(150,100,100); fill-opacity: 0.7; }
      rect.kernel       { fill: rgb(150,150,150); fill-opacity: 0.7; }
      rect.initrd       { fill: rgb(150,150,150); fill-opacity: 0.7; }
      rect.firmware     { fill: rgb(150,150,150); fill-opacity: 0.7; }
      rect.loader       { fill: rgb(150,150,150); fill-opacity: 0.7; }
      rect.userspace    { fill: rgb(150,150,150); fill-opacity: 0.7; }
      rect.security     { fill: rgb(144,238,144); fill-opacity: 0.7; }
      rect.generators   { fill: rgb(102,204,255); fill-opacity: 0.7; }
      rect.unitsload    { fill: rgb( 82,184,255); fill-opacity: 0.7; }
      rect.box   { fill: rgb(240,240,240); stroke: rgb(192,192,192); }
      line       { stroke: rgb(64,64,64); stroke-width: 1; }
//    line.sec1  { }
      line.sec5  { stroke-width: 2; }
      line.sec01 { stroke: rgb(224,224,224); stroke-width: 1; }
      text       { font-family: Verdana, Helvetica; font-size: 14px; }
      text.left  { font-family: Verdana, Helvetica; font-size: 14px; text-anchor: start; }
      text.right { font-family: Verdana, Helvetica; font-size: 14px; text-anchor: end; }
      text.sec   { font-size: 10px; }
    ]]>
   </style>
</defs>

<rect class="background" width="100%" height="100%" />
<text x="20" y="50">Startup finished in 1.449s (kernel) + 3.328s (userspace) = 4.778s</text><text x="20" y="30">Linux  (  ) arm64 </text><g transform="translate(20.000,100)">
<rect class="box" x="0" y="0" width="477.812" height="1980.000" />
  <line class="sec5" x1="0.000" y1="0" x2="0.000" y2="1980.000" />
  <text class="sec" x="0.000" y="-5.000" >0.0s</text>
  <line class="sec01" x1="10.000" y1="0" x2="10.000" y2="1980.000" />
  <line class="sec01" x1="20.000" y1="0" x2="20.000" y2="1980.000" />
  <line class="sec01" x1="30.000" y1="0" x2="30.000" y2="1980.000" />
  <line class="sec01" x1="40.000" y1="0" x2="40.000" y2="1980.000" />
  <line class="sec01" x1="50.000" y1="0" x2="50.000" y2="1980.000" />
  <line class="sec01" x1="60.000" y1="0" x2="60.000" y2="1980.000" />
  <line class="sec01" x1="70.000" y1="0" x2="70.000" y2="1980.000" />
  <line class="sec01" x1="80.000" y1="0" x2="80.000" y2="1980.000" />
  <line class="sec01" x1="90.000" y1="0" x2="90.000" y2="1980.000" />
  <line class="sec1" x1="100.000" y1="0" x2="100.000" y2="1980.000" />
  <text class="sec" x="100.000" y="-5.000" >1.0s</text>
  <line class="sec01" x1="110.000" y1="0" x2="110.000" y2="1980.000" />
  <line class="sec01" x1="120.000" y1="0" x2="120.000" y2="1980.000" />
  <line class="sec01" x1="130.000" y1="0" x2="130.000" y2="1980.000" />
  <line class="sec01" x1="140.000" y1="0" x2="140.000" y2="1980.000" />
  <line class="sec01" x1="150.000" y1="0" x2="150.000" y2="1980.000" />
  <line class="sec01" x1="160.000" y1="0" x2="160.000" y2="1980.000" />
  <line class="sec01" x1="170.000" y1="0" x2="170.000" y2="1980.000" />
  <line class="sec01" x1="180.000" y1="0" x2="180.000" y2="1980.000" />
  <line class="sec01" x1="190.000" y1="0" x2="190.000" y2="1980.000" />
  <line class="sec1" x1="200.000" y1="0" x2="200.000" y2="1980.000" />
  <text class="sec" x="200.000" y="-5.000" >2.0s</text>
  <line class="sec01" x1="210.000" y1="0" x2="210.000" y2="1980.000" />
  <line class="sec01" x1="220.000" y1="0" x2="220.000" y2="1980.000" />
  <line class="sec01" x1="230.000" y1="0" x2="230.000" y2="1980.000" />
  <line class="sec01" x1="240.000" y1="0" x2="240.000" y2="1980.000" />
  <line class="sec01" x1="250.000" y1="0" x2="250.000" y2="1980.000" />
  <line class="sec01" x1="260.000" y1="0" x2="260.000" y2="1980.000" />
  <line class="sec01" x1="270.000" y1="0" x2="270.000" y2="1980.000" />
  <line class="sec01" x1="280.000" y1="0" x2="280.000" y2="1980.000" />
  <line class="sec01" x1="290.000" y1="0" x2="290.000" y2="1980.000" />
  <line class="sec1" x1="300.000" y1="0" x2="300.000" y2="1980.000" />
  <text class="sec" x="300.000" y="-5.000" >3.0s</text>
  <line class="sec01" x1="310.000" y1="0" x2="310.000" y2="1980.000" />
  <line class="sec01" x1="320.000" y1="0" x2="320.000" y2="1980.000" />
  <line class="sec01" x1="330.000" y1="0" x2="330.000" y2="1980.000" />
  <line class="sec01" x1="340.000" y1="0" x2="340.000" y2="1980.000" />
  <line class="sec01" x1="350.000" y1="0" x2="350.000" y2="1980.000" />
  <line class="sec01" x1="360.000" y1="0" x2="360.000" y2="1980.000" />
  <line class="sec01" x1="370.000" y1="0" x2="370.000" y2="1980.000" />
  <line class="sec01" x1="380.000" y1="0" x2="380.000" y2="1980.000" />
  <line class="sec01" x1="390.000" y1="0" x2="390.000" y2="1980.000" />
  <line class="sec1" x1="400.000" y1="0" x2="400.000" y2="1980.000" />
  <text class="sec" x="400.000" y="-5.000" >4.0s</text>
  <line class="sec01" x1="410.000" y1="0" x2="410.000" y2="1980.000" />
  <line class="sec01" x1="420.000" y1="0" x2="420.000" y2="1980.000" />
  <line class="sec01" x1="430.000" y1="0" x2="430.000" y2="1980.000" />
  <line class="sec01" x1="440.000" y1="0" x2="440.000" y2="1980.000" />
  <line class="sec01" x1="450.000" y1="0" x2="450.000" y2="1980.000" />
  <line class="sec01" x1="460.000" y1="0" x2="460.000" y2="1980.000" />
  <line class="sec01" x1="470.000" y1="0" x2="470.000" y2="1980.000" />
  <rect class="kernel" x="0.000" y="0.000" width="144.950" height="19.000" />
  <text class="left" x="5.000" y="14.000">kernel</text>
  <rect class="active" x="144.950" y="20.000" width="332.862" height="19.000" />
  <rect class="security" x="147.535" y="20.000" width="0.003" height="19.000" />
  <rect class="generators" x="158.241" y="20.000" width="10.796" height="19.000" />
  <rect class="unitsload" x="169.227" y="20.000" width="1.119" height="19.000" />
  <text class="left" x="149.950" y="34.000">systemd</text>
  <rect class="activating" x="170.362" y="40.000" width="0.000" height="19.000" />
  <rect class="active" x="170.362" y="40.000" width="307.449" height="19.000" />
  <rect class="deactivating" x="477.812" y="40.000" width="0.000" height="19.000" />
  <text class="left" x="175.362" y="54.000">init.scope</text>
  <rect class="activating" x="170.368" y="60.000" width="266.270" height="19.000" />
  <rect class="active" x="436.638" y="60.000" width="41.174" height="19.000" />
  <rect class="deactivating" x="477.812" y="60.000" width="0.000" height="19.000" />
  <text class="left" x="175.368" y="74.000">dev-mmcblk0p2.device (2.662s)</text>
  <rect class="activating" x="170.371" y="80.000" width="0.000" height="19.000" />
  <rect class="active" x="170.371" y="80.000" width="307.441" height="19.000" />
  <rect class="deactivating" x="477.812" y="80.000" width="0.000" height="19.000" />
  <text class="left" x="175.371" y="94.000">-.mount</text>
  <rect class="activating" x="170.377" y="100.000" width="0.000" height="19.000" />
  <rect class="active" x="170.377" y="100.000" width="307.435" height="19.000" />
  <rect class="deactivating" x="477.812" y="100.000" width="0.000" height="19.000" />
  <text class="left" x="175.377" y="114.000">-.slice</text>
  <rect class="activating" x="180.110" y="120.000" width="0.000" height="19.000" />
  <rect class="active" x="180.110" y="120.000" width="297.701" height="19.000" />
  <rect class="deactivating" x="477.812" y="120.000" width="0.000" height="19.000" />
  <text class="left" x="185.110" y="134.000">swap.target</text>
  <rect class="activating" x="182.031" y="140.000" width="0.000" height="19.000" />
  <rect class="active" x="182.031" y="140.000" width="295.781" height="19.000" />
  <rect class="deactivating" x="477.812" y="140.000" width="0.000" height="19.000" />
  <text class="left" x="187.031" y="154.000">systemd-udevd-control.socket</text>
  <rect class="activating" x="184.017" y="160.000" width="0.000" height="19.000" />
  <rect class="active" x="184.017" y="160.000" width="293.795" height="19.000" />
  <rect class="deactivating" x="477.812" y="160.000" width="0.000" height="19.000" />
  <text class="left" x="189.017" y="174.000">remote-fs.target</text>
  <rect class="activating" x="186.058" y="180.000" width="0.000" height="19.000" />
  <rect class="active" x="186.058" y="180.000" width="291.754" height="19.000" />
  <rect class="deactivating" x="477.812" y="180.000" width="0.000" height="19.000" />
  <text class="left" x="191.058" y="194.000">system.slice</text>
  <rect class="activating" x="188.047" y="200.000" width="0.000" height="19.000" />
  <rect class="active" x="188.047" y="200.000" width="289.764" height="19.000" />
  <rect class="deactivating" x="477.812" y="200.000" width="0.000" height="19.000" />
  <text class="left" x="193.047" y="214.000">system-serial\x2dgetty.slice</text>
  <rect class="activating" x="190.149" y="220.000" width="32.523" height="19.000" />
  <rect class="active" x="222.672" y="220.000" width="255.140" height="19.000" />
  <rect class="deactivating" x="477.812" y="220.000" width="0.000" height="19.000" />
  <text class="left" x="195.149" y="234.000">sys-kernel-debug.mount (325ms)</text>
  <rect class="activating" x="192.049" y="240.000" width="0.000" height="19.000" />
  <rect class="active" x="192.049" y="240.000" width="285.763" height="19.000" />
  <rect class="deactivating" x="477.812" y="240.000" width="0.000" height="19.000" />
  <text class="left" x="197.049" y="254.000">system-getty.slice</text>
  <rect class="activating" x="193.629" y="260.000" width="0.000" height="19.000" />
  <rect class="active" x="193.629" y="260.000" width="284.183" height="19.000" />
  <rect class="deactivating" x="477.812" y="260.000" width="0.000" height="19.000" />
  <text class="left" x="198.629" y="274.000">systemd-ask-password-console.path</text>
  <rect class="activating" x="195.238" y="280.000" width="0.000" height="19.000" />
  <rect class="active" x="195.238" y="280.000" width="282.574" height="19.000" />
  <rect class="deactivating" x="477.812" y="280.000" width="0.000" height="19.000" />
  <text class="left" x="200.238" y="294.000">user.slice</text>
  <rect class="activating" x="196.810" y="300.000" width="0.000" height="19.000" />
  <rect class="active" x="196.810" y="300.000" width="281.002" height="19.000" />
  <rect class="deactivating" x="477.812" y="300.000" width="0.000" height="19.000" />
  <text class="left" x="201.810" y="314.000">slices.target</text>
  <rect class="activating" x="198.031" y="320.000" width="0.000" height="19.000" />
  <rect class="active" x="198.031" y="320.000" width="279.781" height="19.000" />
  <rect class="deactivating" x="477.812" y="320.000" width="0.000" height="19.000" />
  <text class="left" x="203.031" y="334.000">systemd-networkd.socket</text>
  <rect class="activating" x="199.759" y="340.000" width="27.454" height="19.000" />
  <rect class="active" x="227.213" y="340.000" width="250.599" height="19.000" />
  <rect class="deactivating" x="477.812" y="340.000" width="0.000" height="19.000" />
  <text class="left" x="204.759" y="354.000">dev-hugepages.mount (274ms)</text>
  <rect class="activating" x="201.224" y="360.000" width="0.000" height="19.000" />
  <rect class="active" x="201.224" y="360.000" width="276.588" height="19.000" />
  <rect class="deactivating" x="477.812" y="360.000" width="0.000" height="19.000" />
  <text class="left" x="206.224" y="374.000">syslog.socket</text>
  <rect class="activating" x="202.827" y="380.000" width="0.000" height="19.000" />
  <rect class="active" x="202.827" y="380.000" width="274.984" height="19.000" />
  <rect class="deactivating" x="477.812" y="380.000" width="0.000" height="19.000" />
  <text class="left" x="207.827" y="394.000">systemd-ask-password-wall.path</text>
  <rect class="activating" x="204.419" y="400.000" width="0.000" height="19.000" />
  <rect class="active" x="204.419" y="400.000" width="273.393" height="19.000" />
  <rect class="deactivating" x="477.812" y="400.000" width="0.000" height="19.000" />
  <text class="left" x="209.419" y="414.000">systemd-udevd-kernel.socket</text>
  <rect class="activating" x="206.021" y="420.000" width="0.000" height="19.000" />
  <rect class="active" x="206.021" y="420.000" width="271.791" height="19.000" />
  <rect class="deactivating" x="477.812" y="420.000" width="0.000" height="19.000" />
  <text class="left" x="211.021" y="434.000">systemd-journald-dev-log.socket</text>
  <rect class="activating" x="209.250" y="440.000" width="0.000" height="19.000" />
  <rect class="active" x="209.250" y="440.000" width="268.562" height="19.000" />
  <rect class="deactivating" x="477.812" y="440.000" width="0.000" height="19.000" />
  <text class="left" x="214.250" y="454.000">systemd-initctl.socket</text>
  <rect class="activating" x="210.956" y="460.000" width="14.661" height="19.000" />
  <rect class="active" x="225.617" y="460.000" width="252.195" height="19.000" />
  <rect class="deactivating" x="477.812" y="460.000" width="0.000" height="19.000" />
  <text class="left" x="215.956" y="474.000">dev-mqueue.mount (146ms)</text>
  <rect class="activating" x="212.409" y="480.000" width="0.000" height="19.000" />
  <rect class="active" x="212.409" y="480.000" width="265.403" height="19.000" />
  <rect class="deactivating" x="477.812" y="480.000" width="0.000" height="19.000" />
  <text class="left" x="217.409" y="494.000">paths.target</text>
  <rect class="activating" x="213.626" y="500.000" width="0.000" height="19.000" />
  <rect class="active" x="213.626" y="500.000" width="264.186" height="19.000" />
  <rect class="deactivating" x="477.812" y="500.000" width="0.000" height="19.000" />
  <text class="left" x="218.626" y="514.000">systemd-journald.socket</text>
  <rect class="activating" x="215.368" y="520.000" width="13.462" height="19.000" />
  <rect class="active" x="228.829" y="520.000" width="248.982" height="19.000" />
  <rect class="deactivating" x="477.812" y="520.000" width="0.000" height="19.000" />
  <text class="left" x="220.368" y="534.000">systemd-journald.service (134ms)</text>
  <rect class="activating" x="216.968" y="540.000" width="13.170" height="19.000" />
  <rect class="active" x="230.138" y="540.000" width="247.674" height="19.000" />
  <rect class="deactivating" x="477.812" y="540.000" width="0.000" height="19.000" />
  <text class="left" x="221.968" y="554.000">systemd-remount-fs.service (131ms)</text>
  <rect class="activating" x="218.720" y="560.000" width="5.296" height="19.000" />
  <rect class="active" x="224.016" y="560.000" width="253.796" height="19.000" />
  <rect class="deactivating" x="477.812" y="560.000" width="0.000" height="19.000" />
  <text class="left" x="223.720" y="574.000">sys-fs-fuse-connections.mount (52ms)</text>
  <rect class="activating" x="220.554" y="580.000" width="11.134" height="19.000" />
  <rect class="active" x="231.688" y="580.000" width="246.124" height="19.000" />
  <rect class="deactivating" x="477.812" y="580.000" width="0.000" height="19.000" />
  <text class="left" x="225.554" y="594.000">systemd-sysctl.service (111ms)</text>
  <rect class="activating" x="234.337" y="600.000" width="143.462" height="19.000" />
  <rect class="active" x="377.799" y="600.000" width="100.013" height="19.000" />
  <rect class="deactivating" x="477.812" y="600.000" width="0.000" height="19.000" />
  <text class="left" x="239.337" y="614.000">systemd-hwdb-update.service (1.434s)</text>
  <rect class="activating" x="235.765" y="620.000" width="4.818" height="19.000" />
  <rect class="active" x="240.583" y="620.000" width="237.229" height="19.000" />
  <rect class="deactivating" x="477.812" y="620.000" width="0.000" height="19.000" />
  <text class="left" x="240.765" y="634.000">systemd-sysusers.service (48ms)</text>
  <rect class="activating" x="237.360" y="640.000" width="4.735" height="19.000" />
  <rect class="active" x="242.095" y="640.000" width="235.716" height="19.000" />
  <rect class="deactivating" x="477.812" y="640.000" width="0.000" height="19.000" />
  <text class="left" x="242.360" y="654.000">systemd-random-seed.service (47ms)</text>
  <rect class="activating" x="238.986" y="660.000" width="16.717" height="19.000" />
  <rect class="active" x="255.703" y="660.000" width="222.109" height="19.000" />
  <rect class="deactivating" x="477.812" y="660.000" width="0.000" height="19.000" />
  <text class="left" x="243.986" y="674.000">systemd-journal-flush.service (167ms)</text>
  <rect class="activating" x="244.391" y="680.000" width="1.976" height="19.000" />
  <rect class="active" x="246.367" y="680.000" width="231.445" height="19.000" />
  <rect class="deactivating" x="477.812" y="680.000" width="0.000" height="19.000" />
  <text class="left" x="249.391" y="694.000">systemd-tmpfiles-setup-dev.service (19ms)</text>
  <rect class="activating" x="248.896" y="700.000" width="0.000" height="19.000" />
  <rect class="active" x="248.896" y="700.000" width="228.916" height="19.000" />
  <rect class="deactivating" x="477.812" y="700.000" width="0.000" height="19.000" />
  <text class="left" x="253.896" y="714.000">local-fs-pre.target</text>
  <rect class="activating" x="250.925" y="720.000" width="2.985" height="19.000" />
  <rect class="active" x="253.910" y="720.000" width="223.902" height="19.000" />
  <rect class="deactivating" x="477.812" y="720.000" width="0.000" height="19.000" />
  <text class="left" x="255.925" y="734.000">tmp.mount (29ms)</text>
  <rect class="activating" x="252.188" y="740.000" width="35.249" height="19.000" />
  <rect class="active" x="287.438" y="740.000" width="190.374" height="19.000" />
  <rect class="deactivating" x="477.812" y="740.000" width="0.000" height="19.000" />
  <text class="left" x="257.188" y="754.000">systemd-udevd.service (352ms)</text>
  <rect class="activating" x="257.483" y="760.000" width="0.000" height="19.000" />
  <rect class="active" x="257.483" y="760.000" width="220.329" height="19.000" />
  <rect class="deactivating" x="477.812" y="760.000" width="0.000" height="19.000" />
  <text class="left" x="262.483" y="774.000">local-fs.target</text>
  <rect class="activating" x="258.970" y="780.000" width="9.539" height="19.000" />
  <rect class="active" x="268.509" y="780.000" width="209.303" height="19.000" />
  <rect class="deactivating" x="477.812" y="780.000" width="0.000" height="19.000" />
  <text class="left" x="263.970" y="794.000">systemd-tmpfiles-setup.service (95ms)</text>
  <rect class="activating" x="260.562" y="800.000" width="37.239" height="19.000" />
  <rect class="active" x="297.801" y="800.000" width="180.011" height="19.000" />
  <rect class="deactivating" x="477.812" y="800.000" width="0.000" height="19.000" />
  <text class="left" x="265.562" y="814.000">ldconfig.service (372ms)</text>
  <rect class="activating" x="262.164" y="820.000" width="21.932" height="19.000" />
  <rect class="active" x="284.095" y="820.000" width="193.716" height="19.000" />
  <rect class="deactivating" x="477.812" y="820.000" width="0.000" height="19.000" />
  <text class="left" x="267.164" y="834.000">systemd-journal-catalog-update.service (219ms)</text>
  <rect class="activating" x="270.184" y="840.000" width="12.072" height="19.000" />
  <rect class="active" x="282.256" y="840.000" width="195.555" height="19.000" />
  <rect class="deactivating" x="477.812" y="840.000" width="0.000" height="19.000" />
  <text class="left" x="275.184" y="854.000">systemd-update-utmp.service (120ms)</text>
  <rect class="activating" x="275.377" y="860.000" width="19.010" height="19.000" />
  <rect class="active" x="294.386" y="860.000" width="183.426" height="19.000" />
  <rect class="deactivating" x="477.812" y="860.000" width="0.000" height="19.000" />
  <text class="left" x="280.377" y="874.000">systemd-timesyncd.service (190ms)</text>
  <rect class="activating" x="296.146" y="880.000" width="0.000" height="19.000" />
  <rect class="active" x="296.146" y="880.000" width="181.666" height="19.000" />
  <rect class="deactivating" x="477.812" y="880.000" width="0.000" height="19.000" />
  <text class="left" x="301.146" y="894.000">time-sync.target</text>
  <rect class="activating" x="379.383" y="900.000" width="3.637" height="19.000" />
  <rect class="active" x="383.020" y="900.000" width="94.792" height="19.000" />
  <rect class="deactivating" x="477.812" y="900.000" width="0.000" height="19.000" />
  <text class="left" x="384.383" y="914.000">systemd-update-done.service (36ms)</text>
  <rect class="activating" x="381.356" y="920.000" width="16.738" height="19.000" />
  <rect class="active" x="398.095" y="920.000" width="79.717" height="19.000" />
  <rect class="deactivating" x="477.812" y="920.000" width="0.000" height="19.000" />
  <text class="left" x="386.356" y="934.000">systemd-udev-trigger.service (167ms)</text>
  <rect class="activating" x="393.682" y="940.000" width="0.000" height="19.000" />
  <rect class="active" x="393.682" y="940.000" width="84.130" height="19.000" />
  <rect class="deactivating" x="477.812" y="940.000" width="0.000" height="19.000" />
  <text class="left" x="398.682" y="954.000">sys-module-fuse.device</text>
  <rect class="activating" x="399.691" y="960.000" width="0.000" height="19.000" />
  <rect class="active" x="399.691" y="960.000" width="78.121" height="19.000" />
  <rect class="deactivating" x="477.812" y="960.000" width="0.000" height="19.000" />
  <text class="left" x="404.691" y="974.000">sysinit.target</text>
  <rect class="activating" x="401.236" y="980.000" width="0.000" height="19.000" />
  <rect class="active" x="401.236" y="980.000" width="76.576" height="19.000" />
  <rect class="deactivating" x="477.812" y="980.000" width="0.000" height="19.000" />
  <text class="left" x="406.236" y="994.000">dbus.socket</text>
  <rect class="activating" x="402.822" y="1000.000" width="0.000" height="19.000" />
  <rect class="active" x="402.822" y="1000.000" width="74.989" height="19.000" />
  <rect class="deactivating" x="477.812" y="1000.000" width="0.000" height="19.000" />
  <text class="left" x="407.822" y="1014.000">sockets.target</text>
  <rect class="activating" x="403.272" y="1020.000" width="0.000" height="19.000" />
  <rect class="active" x="403.272" y="1020.000" width="74.540" height="19.000" />
  <rect class="deactivating" x="477.812" y="1020.000" width="0.000" height="19.000" />
  <text class="left" x="408.272" y="1034.000">basic.target</text>
  <rect class="activating" x="406.477" y="1040.000" width="0.000" height="19.000" />
  <rect class="active" x="406.477" y="1040.000" width="71.334" height="19.000" />
  <rect class="deactivating" x="477.812" y="1040.000" width="0.000" height="19.000" />
  <text class="left" x="411.477" y="1054.000">busybox-syslog.service</text>
  <rect class="activating" x="407.014" y="1060.000" width="0.000" height="19.000" />
  <rect class="active" x="407.014" y="1060.000" width="70.798" height="19.000" />
  <rect class="deactivating" x="477.812" y="1060.000" width="0.000" height="19.000" />
  <text class="left" x="412.014" y="1074.000">machines.target</text>
  <rect class="activating" x="408.637" y="1080.000" width="0.000" height="19.000" />
  <rect class="active" x="408.637" y="1080.000" width="69.175" height="19.000" />
  <rect class="deactivating" x="477.812" y="1080.000" width="0.000" height="19.000" />
  <text class="left" x="413.637" y="1094.000">dbus.service</text>
  <rect class="activating" x="416.143" y="1100.000" width="27.747" height="19.000" />
  <rect class="active" x="443.890" y="1100.000" width="33.922" height="19.000" />
  <rect class="deactivating" x="477.812" y="1100.000" width="0.000" height="19.000" />
  <text class="left" x="421.143" y="1114.000">systemd-logind.service (277ms)</text>
  <rect class="activating" x="417.754" y="1120.000" width="10.469" height="19.000" />
  <rect class="active" x="428.222" y="1120.000" width="49.589" height="19.000" />
  <rect class="deactivating" x="477.812" y="1120.000" width="0.000" height="19.000" />
  <text class="left" x="422.754" y="1134.000">stop-bootlogd.service (104ms)</text>
  <rect class="activating" x="420.166" y="1140.000" width="0.000" height="19.000" />
  <rect class="active" x="420.166" y="1140.000" width="57.646" height="19.000" />
  <rect class="deactivating" x="477.812" y="1140.000" width="0.000" height="19.000" />
  <text class="left" x="425.166" y="1154.000">getty@tty1.service</text>
  <rect class="activating" x="421.633" y="1160.000" width="0.000" height="19.000" />
  <rect class="active" x="421.633" y="1160.000" width="56.179" height="19.000" />
  <rect class="deactivating" x="477.812" y="1160.000" width="0.000" height="19.000" />
  <text class="left" x="426.633" y="1174.000">systemd-tmpfiles-clean.timer</text>
  <rect class="activating" x="423.214" y="1180.000" width="0.000" height="19.000" />
  <rect class="active" x="423.214" y="1180.000" width="54.598" height="19.000" />
  <rect class="deactivating" x="477.812" y="1180.000" width="0.000" height="19.000" />
  <text class="left" x="428.214" y="1194.000">timers.target</text>
  <rect class="activating" x="424.557" y="1200.000" width="0.000" height="19.000" />
  <rect class="active" x="424.557" y="1200.000" width="53.254" height="19.000" />
  <rect class="deactivating" x="477.812" y="1200.000" width="0.000" height="19.000" />
  <text class="left" x="429.557" y="1214.000">busybox-klogd.service</text>
  <rect class="activating" x="426.190" y="1220.000" width="5.850" height="19.000" />
  <rect class="active" x="432.040" y="1220.000" width="45.772" height="19.000" />
  <rect class="deactivating" x="477.812" y="1220.000" width="0.000" height="19.000" />
  <text class="left" x="431.190" y="1234.000">systemd-networkd.service (58ms)</text>
  <rect class="activating" x="430.642" y="1240.000" width="0.000" height="19.000" />
  <rect class="active" x="430.642" y="1240.000" width="47.170" height="19.000" />
  <rect class="deactivating" x="477.812" y="1240.000" width="0.000" height="19.000" />
  <text class="left" x="435.642" y="1254.000">dev-ttyLF0.device</text>
  <rect class="activating" x="432.021" y="1260.000" width="0.000" height="19.000" />
  <rect class="active" x="432.021" y="1260.000" width="45.791" height="19.000" />
  <rect class="deactivating" x="477.812" y="1260.000" width="0.000" height="19.000" />
  <text class="left" x="437.021" y="1274.000">sys-devices-platform-soc-40000000.aips\x2dbus-40053000.serial-tty-ttyLF0.device</text>
  <rect class="activating" x="433.848" y="1280.000" width="0.000" height="19.000" />
  <rect class="active" x="433.848" y="1280.000" width="43.964" height="19.000" />
  <rect class="deactivating" x="477.812" y="1280.000" width="0.000" height="19.000" />
  <text class="left" x="438.848" y="1294.000">sys-subsystem-net-devices-eth0.device</text>
  <rect class="activating" x="433.849" y="1300.000" width="0.000" height="19.000" />
  <rect class="active" x="433.849" y="1300.000" width="43.962" height="19.000" />
  <rect class="deactivating" x="477.812" y="1300.000" width="0.000" height="19.000" />
  <text class="left" x="438.849" y="1314.000">sys-devices-platform-soc-40000000.aips\x2dbus-40032000.ethernet-net-eth0.device</text>
  <rect class="activating" x="434.263" y="1320.000" width="0.000" height="19.000" />
  <rect class="active" x="434.263" y="1320.000" width="43.549" height="19.000" />
  <rect class="deactivating" x="477.812" y="1320.000" width="0.000" height="19.000" />
  <text class="left" x="439.263" y="1334.000">dev-disk-by\x2dpath-platform\x2d4005d000.usdhc.device</text>
  <rect class="activating" x="434.265" y="1340.000" width="0.000" height="19.000" />
  <rect class="active" x="434.265" y="1340.000" width="43.547" height="19.000" />
  <rect class="deactivating" x="477.812" y="1340.000" width="0.000" height="19.000" />
  <text class="left" x="439.265" y="1354.000">dev-disk-by\x2did-mmc\x2dUSD_0x411dc1b4.device</text>
  <rect class="activating" x="434.266" y="1360.000" width="0.000" height="19.000" />
  <rect class="active" x="434.266" y="1360.000" width="43.546" height="19.000" />
  <rect class="deactivating" x="477.812" y="1360.000" width="0.000" height="19.000" />
  <text class="left" x="439.266" y="1374.000">dev-mmcblk0.device</text>
  <rect class="activating" x="434.266" y="1380.000" width="0.000" height="19.000" />
  <rect class="active" x="434.266" y="1380.000" width="43.545" height="19.000" />
  <rect class="deactivating" x="477.812" y="1380.000" width="0.000" height="19.000" />
  <text class="left" x="439.266" y="1394.000">sys-devices-platform-soc-40000000.aips\x2dbus-4005d000.usdhc-mmc_host-mmc0-mmc0:59b4-block-mmcblk0.device</text>
  <rect class="activating" x="434.482" y="1400.000" width="0.000" height="19.000" />
  <rect class="active" x="434.482" y="1400.000" width="43.329" height="19.000" />
  <rect class="deactivating" x="477.812" y="1400.000" width="0.000" height="19.000" />
  <text class="left" x="439.482" y="1414.000">sys-subsystem-net-devices-can0.device</text>
  <rect class="activating" x="434.484" y="1420.000" width="0.000" height="19.000" />
  <rect class="active" x="434.484" y="1420.000" width="43.328" height="19.000" />
  <rect class="deactivating" x="477.812" y="1420.000" width="0.000" height="19.000" />
  <text class="left" x="439.484" y="1434.000">sys-devices-platform-soc-40000000.aips\x2dbus-40055000.flexcan-net-can0.device</text>
  <rect class="activating" x="434.686" y="1440.000" width="0.000" height="19.000" />
  <rect class="active" x="434.686" y="1440.000" width="43.126" height="19.000" />
  <rect class="deactivating" x="477.812" y="1440.000" width="0.000" height="19.000" />
  <text class="left" x="439.686" y="1454.000">dev-ttyLF1.device</text>
  <rect class="activating" x="434.688" y="1460.000" width="0.000" height="19.000" />
  <rect class="active" x="434.688" y="1460.000" width="43.124" height="19.000" />
  <rect class="deactivating" x="477.812" y="1460.000" width="0.000" height="19.000" />
  <text class="left" x="439.688" y="1474.000">sys-devices-platform-soc-40080000.aips\x2dbus-400bc000.serial-tty-ttyLF1.device</text>
  <rect class="activating" x="434.970" y="1480.000" width="0.000" height="19.000" />
  <rect class="active" x="434.970" y="1480.000" width="42.842" height="19.000" />
  <rect class="deactivating" x="477.812" y="1480.000" width="0.000" height="19.000" />
  <text class="left" x="439.970" y="1494.000">sys-subsystem-net-devices-can1.device</text>
  <rect class="activating" x="434.971" y="1500.000" width="0.000" height="19.000" />
  <rect class="active" x="434.971" y="1500.000" width="42.841" height="19.000" />
  <rect class="deactivating" x="477.812" y="1500.000" width="0.000" height="19.000" />
  <text class="left" x="439.971" y="1514.000">sys-devices-platform-soc-40080000.aips\x2dbus-400be000.flexcan-net-can1.device</text>
  <rect class="activating" x="435.691" y="1520.000" width="0.000" height="19.000" />
  <rect class="active" x="435.691" y="1520.000" width="42.120" height="19.000" />
  <rect class="deactivating" x="477.812" y="1520.000" width="0.000" height="19.000" />
  <text class="left" x="440.691" y="1534.000">dev-disk-by\x2duuid-65E2\x2d42C7.device</text>
  <rect class="activating" x="435.693" y="1540.000" width="0.000" height="19.000" />
  <rect class="active" x="435.693" y="1540.000" width="42.119" height="19.000" />
  <rect class="deactivating" x="477.812" y="1540.000" width="0.000" height="19.000" />
  <text class="left" x="440.693" y="1554.000">dev-disk-by\x2dpath-platform\x2d4005d000.usdhc\x2dpart1.device</text>
  <rect class="activating" x="435.694" y="1560.000" width="0.000" height="19.000" />
  <rect class="active" x="435.694" y="1560.000" width="42.118" height="19.000" />
  <rect class="deactivating" x="477.812" y="1560.000" width="0.000" height="19.000" />
  <text class="left" x="440.694" y="1574.000">dev-disk-by\x2dpartuuid-6bbbc99a\x2d01.device</text>
  <rect class="activating" x="435.695" y="1580.000" width="0.000" height="19.000" />
  <rect class="active" x="435.695" y="1580.000" width="42.117" height="19.000" />
  <rect class="deactivating" x="477.812" y="1580.000" width="0.000" height="19.000" />
  <text class="left" x="440.695" y="1594.000">dev-disk-by\x2dlabel-Boot\x5cx20s32v23.device</text>
  <rect class="activating" x="435.696" y="1600.000" width="0.000" height="19.000" />
  <rect class="active" x="435.696" y="1600.000" width="42.116" height="19.000" />
  <rect class="deactivating" x="477.812" y="1600.000" width="0.000" height="19.000" />
  <text class="left" x="440.696" y="1614.000">dev-disk-by\x2did-mmc\x2dUSD_0x411dc1b4\x2dpart1.device</text>
  <rect class="activating" x="435.696" y="1620.000" width="0.000" height="19.000" />
  <rect class="active" x="435.696" y="1620.000" width="42.115" height="19.000" />
  <rect class="deactivating" x="477.812" y="1620.000" width="0.000" height="19.000" />
  <text class="left" x="440.696" y="1634.000">dev-mmcblk0p1.device</text>
  <rect class="activating" x="435.697" y="1640.000" width="0.000" height="19.000" />
  <rect class="active" x="435.697" y="1640.000" width="42.115" height="19.000" />
  <rect class="deactivating" x="477.812" y="1640.000" width="0.000" height="19.000" />
  <text class="left" x="440.697" y="1654.000">sys-devices-platform-soc-40000000.aips\x2dbus-4005d000.usdhc-mmc_host-mmc0-mmc0:59b4-block-mmcblk0-mmcblk0p1.device</text>
  <rect class="activating" x="435.898" y="1660.000" width="0.000" height="19.000" />
  <rect class="active" x="435.898" y="1660.000" width="41.913" height="19.000" />
  <rect class="deactivating" x="477.812" y="1660.000" width="0.000" height="19.000" />
  <text class="left" x="440.898" y="1674.000">sys-subsystem-net-devices-sit0.device</text>
  <rect class="activating" x="435.900" y="1680.000" width="0.000" height="19.000" />
  <rect class="active" x="435.900" y="1680.000" width="41.912" height="19.000" />
  <rect class="deactivating" x="477.812" y="1680.000" width="0.000" height="19.000" />
  <text class="left" x="440.900" y="1694.000">sys-devices-virtual-net-sit0.device</text>
  <rect class="activating" x="436.098" y="1700.000" width="0.000" height="19.000" />
  <rect class="active" x="436.098" y="1700.000" width="41.714" height="19.000" />
  <rect class="deactivating" x="477.812" y="1700.000" width="0.000" height="19.000" />
  <text class="left" x="441.098" y="1714.000">dev-ttyp0.device</text>
  <rect class="activating" x="436.100" y="1720.000" width="0.000" height="19.000" />
  <rect class="active" x="436.100" y="1720.000" width="41.712" height="19.000" />
  <rect class="deactivating" x="477.812" y="1720.000" width="0.000" height="19.000" />
  <text class="left" x="441.100" y="1734.000">sys-devices-virtual-tty-ttyp0.device</text>
  <rect class="activating" x="436.633" y="1740.000" width="0.000" height="19.000" />
  <rect class="active" x="436.633" y="1740.000" width="41.179" height="19.000" />
  <rect class="deactivating" x="477.812" y="1740.000" width="0.000" height="19.000" />
  <text class="left" x="441.633" y="1754.000">dev-disk-by\x2duuid-8690bd50\x2d3292\x2d45e4\x2d9b08\x2d9effe85aa87a.device</text>
  <rect class="activating" x="436.635" y="1760.000" width="0.000" height="19.000" />
  <rect class="active" x="436.635" y="1760.000" width="41.177" height="19.000" />
  <rect class="deactivating" x="477.812" y="1760.000" width="0.000" height="19.000" />
  <text class="left" x="441.635" y="1774.000">dev-disk-by\x2dpath-platform\x2d4005d000.usdhc\x2dpart2.device</text>
  <rect class="activating" x="436.636" y="1780.000" width="0.000" height="19.000" />
  <rect class="active" x="436.636" y="1780.000" width="41.176" height="19.000" />
  <rect class="deactivating" x="477.812" y="1780.000" width="0.000" height="19.000" />
  <text class="left" x="441.636" y="1794.000">dev-disk-by\x2dpartuuid-6bbbc99a\x2d02.device</text>
  <rect class="activating" x="436.637" y="1800.000" width="0.000" height="19.000" />
  <rect class="active" x="436.637" y="1800.000" width="41.175" height="19.000" />
  <rect class="deactivating" x="477.812" y="1800.000" width="0.000" height="19.000" />
  <text class="left" x="441.637" y="1814.000">dev-disk-by\x2did-mmc\x2dUSD_0x411dc1b4\x2dpart2.device</text>
  <rect class="activating" x="436.638" y="1820.000" width="0.000" height="19.000" />
  <rect class="active" x="436.638" y="1820.000" width="41.174" height="19.000" />
  <rect class="deactivating" x="477.812" y="1820.000" width="0.000" height="19.000" />
  <text class="left" x="441.638" y="1834.000">sys-devices-platform-soc-40000000.aips\x2dbus-4005d000.usdhc-mmc_host-mmc0-mmc0:59b4-block-mmcblk0-mmcblk0p2.device</text>
  <rect class="activating" x="436.762" y="1840.000" width="0.000" height="19.000" />
  <rect class="active" x="436.762" y="1840.000" width="41.050" height="19.000" />
  <rect class="deactivating" x="477.812" y="1840.000" width="0.000" height="19.000" />
  <text class="left" x="441.762" y="1854.000">network.target</text>
  <rect class="activating" x="439.011" y="1860.000" width="29.719" height="19.000" />
  <rect class="active" x="468.730" y="1860.000" width="9.082" height="19.000" />
  <rect class="deactivating" x="477.812" y="1860.000" width="0.000" height="19.000" />
  <text class="left" x="444.011" y="1874.000">systemd-resolved.service (297ms)</text>
  <rect class="activating" x="440.564" y="1880.000" width="0.000" height="19.000" />
  <rect class="active" x="440.564" y="1880.000" width="37.247" height="19.000" />
  <rect class="deactivating" x="477.812" y="1880.000" width="0.000" height="19.000" />
  <text class="left" x="445.564" y="1894.000">serial-getty@ttyLF0.service</text>
  <rect class="activating" x="442.037" y="1900.000" width="0.000" height="19.000" />
  <rect class="active" x="442.037" y="1900.000" width="35.774" height="19.000" />
  <rect class="deactivating" x="477.812" y="1900.000" width="0.000" height="19.000" />
  <text class="left" x="447.037" y="1914.000">getty.target</text>
  <rect class="activating" x="470.068" y="1920.000" width="0.000" height="19.000" />
  <rect class="active" x="470.068" y="1920.000" width="7.744" height="19.000" />
  <rect class="deactivating" x="477.812" y="1920.000" width="0.000" height="19.000" />
  <text class="left" x="475.068" y="1934.000">nss-lookup.target</text>
  <rect class="activating" x="471.621" y="1940.000" width="0.000" height="19.000" />
  <rect class="active" x="471.621" y="1940.000" width="6.190" height="19.000" />
  <rect class="deactivating" x="477.812" y="1940.000" width="0.000" height="19.000" />
  <text class="left" x="476.621" y="1954.000">multi-user.target</text>
  <rect class="activating" x="473.369" y="1960.000" width="2.791" height="19.000" />
  <rect class="active" x="476.160" y="1960.000" width="0.000" height="19.000" />
  <rect class="deactivating" x="476.160" y="1960.000" width="0.000" height="19.000" />
  <text class="left" x="478.369" y="1974.000">systemd-update-utmp-runlevel.service (27ms)</text>
</g>
<g transform="translate(20,100)">
  <rect class="activating" x="0.000" y="2000.000" width="30.000" height="19.000" />
  <text class="left" x="45.000" y="2014.000">Activating</text>
  <rect class="active" x="0.000" y="2020.000" width="30.000" height="19.000" />
  <text class="left" x="45.000" y="2034.000">Active</text>
  <rect class="deactivating" x="0.000" y="2040.000" width="30.000" height="19.000" />
  <text class="left" x="45.000" y="2054.000">Deactivating</text>
  <rect class="security" x="0.000" y="2060.000" width="30.000" height="19.000" />
  <text class="left" x="45.000" y="2074.000">Setting up security module</text>
  <rect class="generators" x="0.000" y="2080.000" width="30.000" height="19.000" />
  <text class="left" x="45.000" y="2094.000">Generators</text>
  <rect class="unitsload" x="0.000" y="2100.000" width="30.000" height="19.000" />
  <text class="left" x="45.000" y="2114.000">Loading unit files</text>
</g>

</svg>
